<?xml version="1.0" encoding="UTF-8"?>
<!DOCTYPE svg PUBLIC "-//W3C//DTD SVG 1.1//EN" "http://www.w3.org/Graphics/SVG/1.1/DTD/svg11.dtd">
<svg xmlns="http://www.w3.org/2000/svg" version="1.1" width="1024px" height="1024px" style="shape-rendering:geometricPrecision; text-rendering:geometricPrecision; image-rendering:optimizeQuality; fill-rule:evenodd; clip-rule:evenodd" xmlns:xlink="http://www.w3.org/1999/xlink">
<g><path style="opacity:0.98" fill="#000000" d="M 311.5,41.5 C 333.077,41.2063 350.911,49.2063 365,65.5C 386.401,93.992 399.901,125.992 405.5,161.5C 407.251,170.087 408.251,178.754 408.5,187.5C 459.974,160.483 513.974,153.983 570.5,168C 586.759,172.526 601.926,179.359 616,188.5C 619.09,154.805 628.09,122.805 643,92.5C 651.282,76.8845 662.449,63.7179 676.5,53C 698.663,40.092 720.663,40.4254 742.5,54C 760.902,67.0791 774.069,84.2458 782,105.5C 794.254,141.61 800.088,178.776 799.5,217C 798.725,240.546 797.558,264.046 796,287.5C 840.685,323.852 866.351,370.852 873,428.5C 878.933,472.571 871.6,514.238 851,553.5C 848.217,557.951 845.05,562.117 841.5,566C 878.687,633.488 882.853,702.988 854,774.5C 848.947,785.437 843.78,796.271 838.5,807C 858.669,856.521 864.502,907.688 856,960.5C 847.919,979.754 834.085,985.587 814.5,978C 805.001,972.17 800.334,963.67 800.5,952.5C 806.269,915.059 803.102,878.392 791,842.5C 786.664,831.489 782.33,820.489 778,809.5C 777.249,804.428 777.582,799.428 779,794.5C 794.979,770.576 806.312,744.576 813,716.5C 820.244,677.539 815.244,640.205 798,604.5C 792.067,592.911 785.734,581.578 779,570.5C 776.404,561.723 777.404,553.39 782,545.5C 786.979,540.189 792.313,535.189 798,530.5C 812.38,507.819 818.88,482.985 817.5,456C 818.065,409.99 802.065,370.99 769.5,339C 747.676,321.385 722.676,311.385 694.5,309C 681.167,308.667 667.833,308.333 654.5,308C 647.966,306.148 642.466,302.648 638,297.5C 614.134,245.178 573.3,218.178 515.5,216.5C 473.404,217.021 437.237,231.688 407,260.5C 398.213,271.071 391.213,282.738 386,295.5C 381.524,301.991 375.357,305.825 367.5,307C 341.138,306.67 315.471,310.67 290.5,319C 239.96,339.911 211.793,377.744 206,432.5C 202.17,467.35 208.836,500.017 226,530.5C 230,535.167 234,539.833 238,544.5C 241.743,552.57 242.41,560.903 240,569.5C 209.45,625.341 202.117,684.007 218,745.5C 223.53,761.572 231.863,775.905 243,788.5C 248.003,797.192 248.67,806.192 245,815.5C 228.963,847.65 219.796,881.65 217.5,917.5C 218.043,928.93 219.376,940.263 221.5,951.5C 218.805,972.024 207.139,981.19 186.5,979C 174.478,975.644 167.312,967.81 165,955.5C 159.115,921.472 160.782,887.805 170,854.5C 174.516,838.616 180.016,823.116 186.5,808C 163.132,771.713 151.799,731.88 152.5,688.5C 152.888,644.784 161.888,602.951 179.5,563C 158.423,528.752 148.09,491.419 148.5,451C 147.849,390.573 169.515,339.907 213.5,299C 219.167,294.667 224.833,290.333 230.5,286C 228.703,273.277 227.537,260.444 227,247.5C 224.861,210.917 226.861,174.584 233,138.5C 237.744,112.568 248.077,89.2351 264,68.5C 276.91,54.1347 292.743,45.1347 311.5,41.5 Z M 315.5,98.5 C 318.195,98.933 320.362,100.266 322,102.5C 336.792,123.52 346.125,146.853 350,172.5C 354.11,195.122 354.443,217.788 351,240.5C 348.833,244 346.667,247.5 344.5,251C 324.524,252.774 304.858,256.274 285.5,261.5C 281.171,225.391 282.004,189.391 288,153.5C 290.623,135.951 296.956,119.951 307,105.5C 309.996,103.267 312.829,100.934 315.5,98.5 Z M 707.5,100.5 C 709.308,100.491 710.975,100.991 712.5,102C 720.457,109.409 726.29,118.242 730,128.5C 737.342,150.56 741.342,173.227 742,196.5C 742.714,216.516 742.381,236.516 741,256.5C 740.781,257.938 740.281,259.271 739.5,260.5C 719.183,255.05 698.516,251.883 677.5,251C 675.951,248.902 674.951,246.568 674.5,244C 668.511,202.259 674.011,162.092 691,123.5C 695.232,114.792 700.732,107.125 707.5,100.5 Z M 500.5,472.5 C 533.943,470.188 563.943,479.021 590.5,499C 606.099,511.263 615.932,527.096 620,546.5C 622.153,579.014 607.986,601.181 577.5,613C 541.821,625.334 505.488,627.667 468.5,620C 446.459,615.567 427.959,605.067 413,588.5C 395.269,562.524 396.602,537.524 417,513.5C 439.776,489.529 467.609,475.862 500.5,472.5 Z"/></g>
<g><path style="opacity:0.97" fill="#000000" d="M 497.5,433.5 C 548.41,430.076 592.243,445.743 629,480.5C 663.993,519.432 669.326,562.098 645,608.5C 627.816,632.031 604.983,647.531 576.5,655C 538.792,664.622 500.792,665.955 462.5,659C 427.341,652.019 398.841,634.519 377,606.5C 352.707,564.51 356.04,524.843 387,487.5C 417.078,455.711 453.912,437.711 497.5,433.5 Z M 500.5,472.5 C 467.609,475.862 439.776,489.529 417,513.5C 396.602,537.524 395.269,562.524 413,588.5C 427.959,605.067 446.459,615.567 468.5,620C 505.488,627.667 541.821,625.334 577.5,613C 607.986,601.181 622.153,579.014 620,546.5C 615.932,527.096 606.099,511.263 590.5,499C 563.943,479.021 533.943,470.188 500.5,472.5 Z"/></g>
<g><path style="opacity:0.97" fill="#000000" d="M 318.5,441.5 C 344.895,440.399 359.895,452.899 363.5,479C 359.92,505.248 344.92,517.581 318.5,516C 295.777,509.264 285.943,494.097 289,470.5C 293.421,455.245 303.254,445.578 318.5,441.5 Z"/></g>
<g><path style="opacity:0.966" fill="#000000" d="M 689.5,441.5 C 710.656,439.318 725.156,447.985 733,467.5C 737.26,485.459 732.094,499.959 717.5,511C 699.144,520.253 682.644,517.753 668,503.5C 655.549,484.464 657.049,466.63 672.5,450C 677.731,446.102 683.397,443.269 689.5,441.5 Z"/></g>
<g><path style="opacity:0.954" fill="#000000" d="M 489.5,517.5 C 492.271,517.421 494.937,517.921 497.5,519C 501.77,521.716 505.937,524.549 510,527.5C 514.156,524.682 518.323,521.848 522.5,519C 532.488,515.788 539.655,518.955 544,528.5C 545.521,534.877 544.021,540.377 539.5,545C 535.244,548.045 531.077,551.212 527,554.5C 526.667,562.167 526.333,569.833 526,577.5C 521.96,588.176 514.46,592.01 503.5,589C 498.853,586.894 495.686,583.394 494,578.5C 493.667,570.5 493.333,562.5 493,554.5C 489.592,551.547 486.092,548.713 482.5,546C 475.291,538.574 474.624,530.574 480.5,522C 483.324,519.921 486.324,518.421 489.5,517.5 Z"/></g>
</svg>
