<svg width="24" height="25" viewBox="0 0 24 25" fill="none" xmlns="http://www.w3.org/2000/svg">
<path d="M20.3706 7.55538C20.1895 7.4666 20.1115 7.63578 20.0056 7.72166C19.9693 7.74936 19.9386 7.78536 19.9081 7.81858C19.6433 8.10135 19.334 8.2871 18.9299 8.26491C18.3392 8.23168 17.8347 8.41739 17.3889 8.86919C17.2941 8.31204 16.9793 7.97925 16.5 7.76593C16.2492 7.65506 15.9956 7.5441 15.82 7.30294C15.6974 7.13114 15.664 6.93982 15.6027 6.75131C15.5637 6.63773 15.5246 6.52125 15.3936 6.50178C15.2515 6.4796 15.1957 6.59875 15.14 6.69866C14.9171 7.1062 14.8307 7.55524 14.8391 8.00981C14.8587 9.0328 15.2906 9.84769 16.1489 10.4272C16.2464 10.4937 16.2715 10.5602 16.2409 10.6572C16.1824 10.8569 16.1127 11.0509 16.0514 11.2505C16.0124 11.378 15.9537 11.4057 15.8172 11.3503C15.3463 11.1536 14.9394 10.8624 14.5799 10.5104C13.9696 9.91989 13.4179 9.26844 12.7295 8.75833C12.5702 8.64052 12.4066 8.52863 12.239 8.42291C11.5368 7.74099 12.331 7.18094 12.5149 7.11448C12.7072 7.04512 12.5818 6.80677 11.9603 6.80953C11.3389 6.81229 10.7704 7.02018 10.0459 7.29742C9.93995 7.33907 9.82853 7.36954 9.71422 7.39439C9.05657 7.26962 8.37383 7.24192 7.6604 7.32228C6.31716 7.4719 5.24437 8.10678 4.45574 9.19071C3.5083 10.4938 3.2853 11.9741 3.55842 13.5182C3.84544 15.1454 4.67585 16.4927 5.95218 17.5462C7.27587 18.6382 8.80024 19.1733 10.5391 19.0708C11.5952 19.0098 12.7713 18.8685 14.0977 17.7457C14.4321 17.9119 14.7832 17.9785 15.3657 18.0284C15.8143 18.0701 16.2463 18.0062 16.5807 17.937C17.1046 17.8262 17.0684 17.341 16.8789 17.2523C15.3435 16.5372 15.6805 16.8282 15.374 16.5926C16.1543 15.6695 17.3303 14.7104 17.7901 11.6027C17.8263 11.3561 17.7956 11.2008 17.7901 11.0012C17.7874 10.8793 17.8152 10.8322 17.9545 10.8183C18.3391 10.7738 18.7125 10.6686 19.0553 10.48C20.0501 9.93669 20.4514 9.04408 20.5462 7.97405C20.5601 7.81053 20.5434 7.64139 20.3706 7.55551V7.55538ZM11.7012 17.1856C10.2131 16.0159 9.49135 15.6305 9.1932 15.6471C8.91455 15.6638 8.96467 15.9826 9.02597 16.1905C9.09002 16.3956 9.17373 16.537 9.29071 16.7171C9.37152 16.8364 9.4273 17.0137 9.20995 17.1469C8.73066 17.4434 7.8974 17.0471 7.85833 17.0276C6.88857 16.4566 6.07763 15.7026 5.50631 14.6714C4.95459 13.6789 4.63406 12.6145 4.58119 11.4779C4.56724 11.2035 4.6481 11.1063 4.92113 11.0565C5.28058 10.9899 5.65122 10.976 6.01072 11.0287C7.52943 11.2505 8.82243 11.9297 9.90649 13.0052C10.5252 13.6178 10.9933 14.3497 11.4755 15.0649C11.9882 15.8244 12.54 16.548 13.2423 17.1413C13.4903 17.3491 13.6881 17.5072 13.8776 17.6237C13.3063 17.6874 12.3532 17.7013 11.7012 17.1856ZM12.421 12.5445C12.4446 12.4489 12.5306 12.3788 12.6348 12.3788C12.6605 12.3789 12.6859 12.3836 12.71 12.3927C12.7407 12.4038 12.7685 12.4205 12.7908 12.4453C12.8298 12.4842 12.8521 12.5396 12.8521 12.5978C12.8521 12.7198 12.7546 12.8168 12.632 12.8168C12.5803 12.8172 12.5301 12.799 12.4907 12.7655C12.4513 12.7319 12.4253 12.6853 12.4175 12.6341C12.4127 12.6043 12.4139 12.5738 12.421 12.5445ZM14.5582 13.7629C14.4402 13.808 14.3227 13.8434 14.2093 13.848C13.9974 13.8591 13.7662 13.7732 13.6408 13.6678C13.4458 13.5043 13.3065 13.4129 13.2479 13.1272C13.2228 13.0052 13.2367 12.8168 13.2591 12.7087C13.3092 12.4758 13.2534 12.3261 13.0891 12.1902C12.9554 12.0794 12.7853 12.0489 12.5986 12.0489C12.529 12.0489 12.4649 12.0184 12.4175 11.9935C12.3395 11.9547 12.2754 11.8577 12.3367 11.7384C12.3563 11.6997 12.451 11.6054 12.4733 11.5888C12.7268 11.4446 13.0195 11.4918 13.2897 11.5999C13.5406 11.7025 13.7301 11.8909 14.0032 12.157C14.2818 12.4785 14.332 12.5673 14.4909 12.8085C14.6163 12.9969 14.7306 13.1911 14.8086 13.4128C14.8483 13.5287 14.8118 13.6273 14.7026 13.6969C14.6582 13.7252 14.6071 13.7442 14.5582 13.7629Z" fill="#4D6BFE"/>
</svg>
