<svg width="24" height="25" viewBox="0 0 24 25" fill="none" xmlns="http://www.w3.org/2000/svg">
<path fill-rule="evenodd" clip-rule="evenodd" d="M8.90754 3.92321C9.07543 3.98927 9.22699 4.09809 9.36456 4.24188C9.59385 4.47972 9.78739 4.82015 9.93506 5.22354C10.0835 5.62927 10.1799 6.07852 10.2164 6.52932C10.7058 6.25247 11.2489 6.08389 11.809 6.03499L11.8486 6.03188C12.5249 5.97747 13.1933 6.0995 13.7762 6.4003C13.8547 6.44149 13.9317 6.48579 14.0071 6.53243C14.0459 6.09017 14.1408 5.65103 14.2869 5.25463C14.4346 4.85046 14.6281 4.51081 14.8566 4.27219C14.9843 4.13405 15.1405 4.02531 15.3144 3.95352C15.5141 3.87579 15.7263 3.8618 15.9331 3.92087C16.2448 4.00948 16.5121 4.2069 16.7228 4.49371C16.9155 4.75564 17.0601 5.09141 17.1588 5.49402C17.3376 6.21997 17.3687 7.17521 17.2482 8.32709L17.2894 8.35818L17.3096 8.37295C17.898 8.82065 18.3076 9.45877 18.5244 10.1995C18.8625 11.3553 18.6923 12.6517 18.1094 13.3769L18.0954 13.3932L18.0969 13.3955C18.4211 13.9878 18.6177 14.6135 18.6597 15.2609L18.6612 15.2842C18.711 16.112 18.5058 16.9452 18.0285 17.7637L18.0231 17.7714L18.0309 17.7901C18.3977 18.6894 18.5128 19.5949 18.3713 20.4996L18.3666 20.5299C18.3447 20.662 18.2713 20.7801 18.1625 20.8582C18.0536 20.9363 17.9183 20.9681 17.786 20.9465C17.7206 20.9363 17.6578 20.9132 17.6012 20.8787C17.5447 20.8442 17.4955 20.7988 17.4565 20.7452C17.4175 20.6917 17.3895 20.6309 17.374 20.5665C17.3585 20.5021 17.3559 20.4352 17.3663 20.3698C17.4961 19.5669 17.3741 18.7616 16.9933 17.9424C16.9577 17.8663 16.9419 17.7825 16.9474 17.6987C16.9528 17.6148 16.9793 17.5337 17.0243 17.4629L17.0274 17.4582C17.4969 16.74 17.6912 16.0358 17.6492 15.3441C17.6135 14.7386 17.3966 14.144 17.0274 13.5774C16.9556 13.4672 16.9301 13.3333 16.9562 13.2044C16.9824 13.0755 17.0583 12.9622 17.1674 12.8888L17.1743 12.8841C17.3632 12.7605 17.5373 12.445 17.6252 12.0136C17.7221 11.5035 17.6968 10.9777 17.5513 10.4793C17.392 9.93522 17.1005 9.48131 16.6925 9.17118C16.23 8.81831 15.6175 8.6481 14.8426 8.69706C14.7413 8.70365 14.6403 8.6797 14.5527 8.62829C14.4652 8.57688 14.395 8.50039 14.3514 8.4087C14.1073 7.89183 13.7513 7.52186 13.3075 7.29258C12.8815 7.07992 12.4044 6.99055 11.9303 7.03453C10.9626 7.11148 10.1092 7.65711 9.85501 8.34497C9.81905 8.44178 9.75438 8.5253 9.66964 8.58433C9.58491 8.64337 9.48416 8.67511 9.38088 8.6753C8.55156 8.67686 7.90955 8.87117 7.4401 9.22171C7.03437 9.52483 6.75767 9.94843 6.61155 10.456C6.47933 10.9337 6.46122 11.4358 6.5587 11.9219C6.64575 12.3556 6.81597 12.7147 7.01106 12.9082L7.01727 12.9136C7.18205 13.0745 7.21703 13.3256 7.10199 13.5238C6.82218 14.0072 6.61311 14.7277 6.57891 15.4203C6.54004 16.2115 6.72347 16.8986 7.13775 17.3914L7.15018 17.4061C7.2127 17.479 7.25291 17.5683 7.26601 17.6634C7.2791 17.7585 7.26453 17.8554 7.22402 17.9424C6.77633 18.9031 6.63875 19.6928 6.78721 20.3146C6.81389 20.4439 6.78907 20.5785 6.71801 20.6898C6.64695 20.801 6.53528 20.8802 6.40676 20.9104C6.27823 20.9405 6.143 20.9194 6.02984 20.8514C5.91669 20.7834 5.83454 20.6739 5.80088 20.5462C5.61201 19.755 5.74026 18.8487 6.16852 17.8274L6.1794 17.8002L6.17318 17.7909C5.9627 17.48 5.80561 17.1361 5.70839 16.7734L5.7045 16.7587C5.58653 16.3062 5.54011 15.8381 5.56693 15.3713C5.60113 14.664 5.783 13.9396 6.05038 13.3582L6.0597 13.338L6.05815 13.3365C5.83042 13.0116 5.66175 12.5957 5.56848 12.1356L5.5646 12.117C5.43609 11.4751 5.46086 10.8121 5.63688 10.1816C5.84052 9.47043 6.2408 8.85951 6.83073 8.41803C6.87737 8.38306 6.92634 8.34808 6.9753 8.31543C6.85172 7.155 6.88281 6.19355 7.06235 5.46293C7.16107 5.06032 7.30641 4.72455 7.49917 4.46262C7.70902 4.17659 7.9764 3.97917 8.28807 3.88979C8.49482 3.83071 8.70779 3.84393 8.90754 3.92243V3.92321ZM12.1067 10.9884C12.8342 10.9884 13.5057 11.2317 14.0078 11.6529C14.4975 12.0625 14.789 12.6128 14.789 13.1608C14.789 13.851 14.4734 14.3888 13.9084 14.7324C13.4265 15.0239 12.7806 15.1653 12.0406 15.1653C11.2564 15.1653 10.5864 14.964 10.1029 14.5948C9.62339 14.2295 9.35446 13.7165 9.35446 13.1608C9.35446 12.6113 9.6638 12.0594 10.1752 11.6483C10.6944 11.2309 11.38 10.9884 12.1067 10.9884ZM12.1067 11.6848C11.5675 11.6801 11.0425 11.8582 10.6175 12.19C10.2592 12.4776 10.0563 12.839 10.0563 13.1616C10.0563 13.4942 10.2195 13.8059 10.5304 14.043C10.8841 14.3127 11.4041 14.4689 12.0406 14.4689C12.6616 14.4689 13.1855 14.3547 13.5423 14.1378C13.9021 13.9202 14.0863 13.6046 14.0863 13.1608C14.0863 12.832 13.8951 12.469 13.5555 12.1846C13.1793 11.8698 12.6694 11.6848 12.1067 11.6848ZM12.6212 12.6253L12.6243 12.6284C12.7176 12.7457 12.6982 12.916 12.5808 13.0092L12.3539 13.188V13.5347C12.3534 13.6118 12.3225 13.6857 12.2677 13.74C12.2129 13.7944 12.1388 13.8248 12.0616 13.8246C11.9844 13.8248 11.9103 13.7944 11.8556 13.74C11.8008 13.6857 11.7698 13.6118 11.7694 13.5347V13.1771L11.5587 13.0077C11.5309 12.9854 11.5078 12.9579 11.4908 12.9266C11.4737 12.8954 11.4629 12.8611 11.4592 12.8257C11.4554 12.7903 11.4587 12.7545 11.4689 12.7203C11.479 12.6862 11.4958 12.6544 11.5183 12.6268C11.5642 12.571 11.6303 12.5355 11.7021 12.5281C11.774 12.5206 11.846 12.5419 11.9023 12.5872L12.0694 12.7209L12.2404 12.5856C12.2965 12.5413 12.3677 12.5206 12.4389 12.528C12.51 12.5354 12.5754 12.5703 12.6212 12.6253ZM8.7039 11.1337C9.07543 11.1337 9.37778 11.4369 9.37778 11.8107C9.37798 11.9899 9.30704 12.1619 9.18054 12.2888C9.05404 12.4158 8.88233 12.4873 8.70312 12.4877C8.52419 12.4871 8.35279 12.4156 8.22648 12.2888C8.10017 12.1621 8.02925 11.9904 8.02925 11.8115C8.02884 11.6323 8.09958 11.4602 8.22593 11.3332C8.35229 11.2061 8.5247 11.1344 8.7039 11.1337ZM15.4706 11.1337C15.8437 11.1337 16.1453 11.4369 16.1453 11.8107C16.1455 11.9899 16.0745 12.1619 15.948 12.2888C15.8215 12.4158 15.6498 12.4873 15.4706 12.4877C15.2917 12.4871 15.1203 12.4156 14.994 12.2888C14.8677 12.1621 14.7967 11.9904 14.7967 11.8115C14.7963 11.6323 14.8671 11.4602 14.9934 11.3332C15.1198 11.2061 15.2914 11.1344 15.4706 11.1337ZM8.54612 4.86368L8.54379 4.86523C8.45375 4.90439 8.37686 4.9686 8.32227 5.05022L8.31839 5.05488C8.21113 5.20178 8.11786 5.41785 8.0479 5.70155C7.91577 6.23941 7.88002 6.96924 7.95153 7.86385C8.28574 7.76437 8.65027 7.70219 9.04278 7.67965L9.05055 7.67887L9.06532 7.65244C9.10108 7.58871 9.13916 7.52731 9.18035 7.46668C9.27596 6.86742 9.19745 6.15158 8.98371 5.56709C8.87956 5.28417 8.75287 5.06187 8.63162 4.93518C8.60659 4.90884 8.57869 4.88538 8.54845 4.86523L8.54612 4.86368ZM15.6766 4.89477L15.675 4.89554C15.6448 4.91569 15.6169 4.93916 15.5919 4.9655C15.4706 5.09219 15.3432 5.31526 15.2398 5.59818C15.0144 6.21531 14.939 6.97857 15.061 7.59726L15.1061 7.67265L15.1123 7.68353H15.1356C15.5214 7.68363 15.9051 7.73912 16.2751 7.84831C16.3419 6.97468 16.3046 6.26039 16.1756 5.73264C16.1056 5.44894 16.0124 5.23287 15.9043 5.08597L15.9012 5.08131C15.8467 4.9994 15.7698 4.93491 15.6797 4.89554H15.6766V4.89477Z" fill="black"/>
</svg>
