<svg width="24" height="25" viewBox="0 0 24 25" fill="none" xmlns="http://www.w3.org/2000/svg">
<path d="M11.1839 4.09233C9.31345 4.09233 7.65163 5.29678 7.07239 7.07453C6.47795 7.19706 5.91642 7.4448 5.42518 7.80124C4.93394 8.15769 4.52424 8.61468 4.22336 9.14179C3.28525 10.7632 3.49946 12.8015 4.75624 14.1912C4.36823 15.3553 4.50139 16.6291 5.12106 17.6831C6.05343 19.3103 7.92946 20.1441 9.76524 19.7561C10.1672 20.2098 10.6613 20.5725 11.2144 20.8202C11.7676 21.0678 12.3673 21.1946 12.9734 21.1923C14.8438 21.1923 16.5057 19.9878 17.0849 18.21C18.2894 17.961 19.326 17.2081 19.9282 16.1428C20.8721 14.5214 20.6578 12.4831 19.4013 11.0933V11.0876C19.5929 10.5122 19.6596 9.90254 19.5966 9.29936C19.5337 8.69618 19.3427 8.11339 19.0365 7.58996C18.1039 5.96857 16.2277 5.13448 14.3978 5.52249C13.994 5.07003 13.4987 4.70855 12.9446 4.46199C12.3905 4.21544 11.7904 4.08943 11.1839 4.09233ZM11.1839 5.20424L11.1782 5.20999C11.931 5.20999 12.6549 5.47058 13.2339 5.95133C13.2108 5.96282 13.1644 5.99176 13.1297 6.00919L9.72485 7.97222C9.55107 8.07071 9.44684 8.256 9.44684 8.45872V13.068L7.98178 12.2227V8.41235C7.98145 7.56242 8.31852 6.74711 8.91893 6.14555C9.51937 5.54398 10.334 5.20555 11.1839 5.20424ZM15.2856 6.54617C15.8499 6.54509 16.4044 6.69298 16.8932 6.97491C17.382 7.25683 17.7876 7.66279 18.0692 8.15176C18.4398 8.80036 18.5787 9.55894 18.4512 10.2943C18.4281 10.2769 18.3819 10.2539 18.3528 10.2365L14.9479 8.26749C14.8622 8.21905 14.7655 8.19359 14.6671 8.19359C14.5687 8.19359 14.472 8.21905 14.3863 8.26749L10.3964 10.5721V8.8812L13.6913 6.97604C14.1758 6.69517 14.7256 6.54684 15.2856 6.54597V6.54617ZM6.86413 8.29642V12.3441C6.86413 12.5469 6.96836 12.7264 7.14216 12.8306L11.1261 15.1296L9.65509 15.9807L6.36593 14.0813C5.63088 13.6553 5.09489 12.955 4.87561 12.1343C4.65634 11.3135 4.77169 10.4392 5.19636 9.70341C5.57098 9.05404 6.16099 8.55642 6.86413 8.29642ZM14.4963 9.29814L17.7912 11.1976C19.3258 12.0836 19.8468 14.0408 18.9608 15.5754L18.9665 15.5812C18.5902 16.2298 17.9995 16.7278 17.2987 16.9826V12.9347C17.2987 12.7319 17.1945 12.5467 17.0207 12.4484L13.031 10.1435L14.4963 9.29814ZM12.0757 10.6938L13.7551 11.6666V13.6065L12.0757 14.5793L10.3964 13.6065V11.6666L12.0757 10.6938ZM14.7163 12.2227L16.1813 13.068V16.8726C16.1813 18.6446 14.7452 20.0807 12.9791 20.0807V20.075C12.232 20.075 11.5024 19.8144 10.9291 19.3339C10.9523 19.3224 11.0044 19.2932 11.0333 19.2758L14.4382 17.3127C14.612 17.2143 14.722 17.029 14.716 16.8263L14.7163 12.2227ZM13.7607 14.7126V16.4033L10.4658 18.3028C8.93118 19.1831 6.9739 18.6619 6.0879 17.133H6.09365C5.71733 16.4902 5.58396 15.7258 5.71138 14.9905C5.73457 15.0079 5.78094 15.0309 5.80987 15.0483L9.21475 17.0173C9.30042 17.0657 9.39716 17.0912 9.49553 17.0912C9.59396 17.0912 9.6907 17.0657 9.77637 17.0173L13.7607 14.7126Z" fill="#26282D"/>
</svg>
