<svg width="24" height="25" viewBox="0 0 24 25" fill="none" xmlns="http://www.w3.org/2000/svg">
<path d="M19.125 4.24109H4.87502C4.08801 4.24109 3.45001 4.87909 3.45001 5.6661V19.9161C3.45001 20.7031 4.08801 21.3411 4.87502 21.3411H19.125C19.912 21.3411 20.55 20.7031 20.55 19.9161V5.6661C20.55 4.87909 19.912 4.24109 19.125 4.24109Z" fill="#FABC05"/>
<path fill-rule="evenodd" clip-rule="evenodd" d="M5.4094 14.038L3.45001 11.2255V5.66597C3.45001 4.879 4.08916 4.24109 4.87489 4.24109H19.1251C19.9121 4.24109 20.55 4.88023 20.55 5.66597L11.1094 5.6661C11.1094 5.6661 5.4094 14.4323 5.4094 14.038Z" fill="#EB4335"/>
<path fill-rule="evenodd" clip-rule="evenodd" d="M13.5798 15.6142L10.1256 21.3411H4.87389C4.08749 21.3411 3.45001 20.7045 3.45001 19.9159V11.2255L5.27146 13.7255C6.22188 15.3397 7.97754 16.4229 9.98622 16.4229C11.3405 16.4229 12.5854 15.9266 13.5443 15.1106L13.7229 15.2893C13.6922 15.3973 13.6448 15.5064 13.5798 15.6142H13.5798Z" fill="#34A854"/>
<path d="M9.95159 7.09108C7.72501 7.09108 5.94377 8.83274 5.94377 11.0099C5.94377 13.1869 7.72501 14.9286 9.95159 14.9286C12.1781 14.9286 13.9594 13.1869 13.9594 11.0099C13.9594 8.83274 12.1781 7.09108 9.95159 7.09108Z" fill="#4285F5"/>
<path d="M14.391 14.2915L15.3525 15.2529L15.7935 14.78L19.6594 18.6459L17.6767 20.6286L13.8108 16.7627L14.2635 16.3405L13.2999 15.377C12.3806 16.0615 11.24 16.4695 10.0095 16.4695C6.97705 16.4695 4.51876 14.0112 4.51876 10.9787C4.51876 7.94628 6.97705 5.48795 10.0095 5.48795C13.042 5.48795 15.5003 7.94628 15.5003 10.9787C15.5003 12.2192 15.0857 13.3683 14.391 14.2915L14.391 14.2915ZM10.0096 7.17748C7.89775 7.17748 6.20826 8.86694 6.20826 10.9788C6.20826 13.0906 7.89775 14.7801 10.0096 14.7801C12.1214 14.7801 13.8109 13.0906 13.8109 10.9787C13.8109 8.86691 12.1214 7.17748 10.0096 7.17748Z" fill="white"/>
</svg>
