<svg width="81" height="80" viewBox="0 0 81 80" fill="none" xmlns="http://www.w3.org/2000/svg">
    <path
        d="M38.1805 20.8115C43.3415 20.8934 47.86 22.6063 51.6296 26.1709C54.6497 29.0269 56.5112 32.5219 57.2519 36.6109C57.4559 37.7236 57.5484 38.8538 57.528 39.9848C57.436 44.5827 55.9225 48.6519 52.9005 52.129C49.9715 55.4993 46.2938 57.6385 41.9098 58.444C35.9972 59.5302 30.6329 58.2104 25.8848 54.4915C24.8985 53.719 24.0427 52.804 23.1508 51.9293C21.2307 50.0461 19.3129 48.1606 17.3974 46.2728C15.6598 44.5652 13.9218 42.8581 12.1834 41.1513C11.3762 40.3556 11.3756 39.2517 12.1824 38.4562C13.9677 36.6957 15.7562 34.9383 17.5477 33.184C19.2297 31.5326 20.9033 29.8726 22.5983 28.2347C23.7237 27.1473 24.7886 25.9952 26.0229 25.0227C28.4824 23.0848 31.2464 21.8097 34.3151 21.1973C35.5876 20.9408 36.8825 20.8116 38.1805 20.8115L38.1805 20.8115ZM53.0983 39.8185C53.0785 38.9929 53.0107 38.1831 52.8578 37.3813C52.1054 33.4373 50.0333 30.3569 46.6822 28.1781C43.4502 26.0767 39.898 25.4236 36.1095 26.1409C33.3837 26.657 31.0072 27.8817 29.0006 29.7983C27.6737 31.0656 26.3731 32.3605 25.063 33.6452C23.3066 35.3675 21.5517 37.0913 19.7984 38.8167C19.1927 39.4139 19.1953 40.1941 19.7963 40.7886C20.6567 41.6396 21.5232 42.4845 22.3862 43.3329C24.4901 45.4014 26.594 47.4698 28.6979 49.5383C31.7486 52.5264 35.4081 53.9228 39.6766 53.7276C41.9343 53.6234 44.0632 53.0213 46.0032 51.866C50.5635 49.1504 52.8928 45.1025 53.0983 39.8185ZM62.5034 39.8063C62.5061 37.7316 62.3005 35.6773 61.8427 33.6509C61.8288 33.5892 61.8179 33.5269 61.8102 33.4641C61.7869 33.2742 61.8524 33.1235 62.0161 33.0204C62.1865 32.913 62.3601 32.9081 62.5268 33.0239C62.5958 33.0766 62.66 33.1352 62.7187 33.1992C64.4581 34.9378 66.1971 36.6768 67.9359 38.416C68.7929 39.2731 68.7913 40.3645 67.9323 41.2236C66.1989 42.957 64.4655 44.6904 62.7321 46.4238C62.6874 46.4685 62.6438 46.5145 62.5973 46.5574C62.426 46.7154 62.2309 46.7477 62.0318 46.6285C61.8465 46.5176 61.7645 46.3511 61.8136 46.1253C61.9964 45.2845 62.1531 44.4393 62.2655 43.5856C62.3985 42.5744 62.4867 41.5603 62.5028 40.5404C62.5066 40.2958 62.5034 40.051 62.5034 39.8063Z"
        fill="#33B5F1"/>
    <path
        d="M48.4674 39.8095C48.4563 45.0031 44.3511 49.2566 39.1033 49.3417C33.6533 49.4301 29.5861 45.089 29.4201 40.1611C29.238 34.7576 33.5429 30.4054 38.7263 30.2948C43.9495 30.1834 48.4387 34.344 48.4674 39.8095Z"
        fill="#33B5F1"/>
</svg>
