<svg width="24" height="25" viewBox="0 0 24 25" fill="none" xmlns="http://www.w3.org/2000/svg">
<path d="M20.4326 14.7173C20.3069 14.5665 20.1309 14.4663 19.937 14.4353C19.7432 14.4043 19.5446 14.4445 19.3782 14.5486L11.9976 19.9681V20.2001C12.1041 20.1875 12.212 20.1975 12.3144 20.2297C12.4167 20.2618 12.511 20.3152 12.5912 20.3864C12.6713 20.4577 12.7355 20.5451 12.7794 20.6429C12.8234 20.7407 12.8461 20.8467 12.8461 20.9539C12.8461 21.0612 12.8234 21.1672 12.7794 21.265C12.7355 21.3628 12.6713 21.4502 12.5912 21.5214C12.511 21.5927 12.4167 21.6461 12.3144 21.6782C12.212 21.7103 12.1041 21.7204 11.9976 21.7078C12.1688 21.7086 12.3356 21.653 12.4721 21.5497L20.285 15.7823C20.4372 15.6546 20.5366 15.475 20.5639 15.2782C20.5911 15.0815 20.5443 14.8816 20.4326 14.7173Z" fill="#669DF6"/>
<path d="M11.9976 21.7078C11.813 21.686 11.6429 21.5971 11.5194 21.4582C11.396 21.3192 11.3278 21.1398 11.3278 20.9539C11.3278 20.7681 11.396 20.5887 11.5194 20.4497C11.6429 20.3108 11.813 20.2219 11.9976 20.2001V19.9681L4.61702 14.5486C4.45126 14.4423 4.25213 14.4007 4.05764 14.4318C3.86316 14.4629 3.68695 14.5646 3.56265 14.7173C3.45149 14.8816 3.40705 15.0821 3.43839 15.2779C3.46973 15.4738 3.57448 15.6503 3.73135 15.7717L11.5442 21.5391C11.6775 21.641 11.8404 21.6965 12.0082 21.6973L11.9976 21.7078Z" fill="#AECBFA"/>
<path d="M11.9976 19.4093C11.6911 19.4093 11.3914 19.5002 11.1365 19.6705C10.8816 19.8408 10.683 20.0829 10.5657 20.3661C10.4484 20.6493 10.4177 20.9609 10.4775 21.2616C10.5373 21.5622 10.6849 21.8384 10.9017 22.0552C11.1184 22.2719 11.3946 22.4196 11.6952 22.4794C11.9959 22.5392 12.3075 22.5085 12.5907 22.3912C12.874 22.2738 13.116 22.0752 13.2863 21.8203C13.4566 21.5654 13.5475 21.2658 13.5475 20.9592C13.5475 20.5482 13.3842 20.1539 13.0936 19.8633C12.8029 19.5726 12.4087 19.4093 11.9976 19.4093ZM11.9976 21.7078C11.847 21.7078 11.6998 21.663 11.5748 21.5791C11.4497 21.4952 11.3524 21.376 11.2953 21.2367C11.2382 21.0974 11.2238 20.9442 11.2539 20.7967C11.2841 20.6491 11.3574 20.5139 11.4647 20.4081C11.5719 20.3024 11.7081 20.2309 11.8561 20.2029C12.004 20.1748 12.157 20.1913 12.2955 20.2504C12.434 20.3095 12.5518 20.4084 12.634 20.5346C12.7161 20.6608 12.7589 20.8086 12.7568 20.9592C12.7568 21.0584 12.7371 21.1566 12.6988 21.2482C12.6605 21.3397 12.6044 21.4227 12.5338 21.4923C12.4631 21.562 12.3794 21.6169 12.2873 21.6539C12.1953 21.6909 12.0968 21.7092 11.9976 21.7078Z" fill="#4285F4"/>
<path d="M5.67139 6.51435C5.46251 6.51162 5.26296 6.42743 5.11525 6.27971C4.96754 6.132 4.88335 5.93245 4.88061 5.72357V3.74135C4.86768 3.62912 4.87862 3.51542 4.91272 3.40772C4.94682 3.30001 5.00331 3.20073 5.07848 3.1164C5.15365 3.03206 5.24581 2.96458 5.3489 2.91837C5.45199 2.87216 5.56369 2.84827 5.67666 2.84827C5.78964 2.84827 5.90134 2.87216 6.00443 2.91837C6.10752 2.96458 6.19968 3.03206 6.27485 3.1164C6.35002 3.20073 6.40651 3.30001 6.44061 3.40772C6.47471 3.51542 6.48565 3.62912 6.47271 3.74135V5.72357C6.46994 5.93426 6.38429 6.13538 6.23432 6.28339C6.08434 6.43139 5.8821 6.51437 5.67139 6.51435Z" fill="#AECBFA"/>
<path d="M5.6503 13.5259C6.09286 13.5259 6.45163 13.1671 6.45163 12.7246C6.45163 12.282 6.09286 11.9233 5.6503 11.9233C5.20775 11.9233 4.84898 12.282 4.84898 12.7246C4.84898 13.1671 5.20775 13.5259 5.6503 13.5259Z" fill="#AECBFA"/>
<path d="M5.6503 11.1958C6.09286 11.1958 6.45163 10.837 6.45163 10.3944C6.45163 9.95187 6.09286 9.59311 5.6503 9.59311C5.20775 9.59311 4.84898 9.95187 4.84898 10.3944C4.84898 10.837 5.20775 11.1958 5.6503 11.1958Z" fill="#AECBFA"/>
<path d="M5.6503 8.85505C6.09286 8.85505 6.45163 8.49629 6.45163 8.05373C6.45163 7.61117 6.09286 7.25241 5.6503 7.25241C5.20775 7.25241 4.84898 7.61117 4.84898 8.05373C4.84898 8.49629 5.20775 8.85505 5.6503 8.85505Z" fill="#AECBFA"/>
<path d="M18.3238 8.83396C18.1131 8.83119 17.912 8.74554 17.764 8.59556C17.616 8.44559 17.533 8.24335 17.5331 8.03264V6.05042C17.5331 5.8407 17.6164 5.63956 17.7647 5.49126C17.913 5.34296 18.1141 5.25965 18.3238 5.25965C18.5336 5.25965 18.7347 5.34296 18.883 5.49126C19.0313 5.63956 19.1146 5.8407 19.1146 6.05042V8.03264C19.116 8.13737 19.0966 8.24133 19.0575 8.3385C19.0184 8.43566 18.9603 8.52408 18.8868 8.59863C18.8132 8.67318 18.7255 8.73238 18.6289 8.77277C18.5323 8.81317 18.4286 8.83397 18.3238 8.83396Z" fill="#4285F4"/>
<path d="M18.3449 13.5365C18.7875 13.5365 19.1462 13.1777 19.1462 12.7351C19.1462 12.2926 18.7875 11.9338 18.3449 11.9338C17.9024 11.9338 17.5436 12.2926 17.5436 12.7351C17.5436 13.1777 17.9024 13.5365 18.3449 13.5365Z" fill="#4285F4"/>
<path d="M18.3449 11.1641C18.7875 11.1641 19.1462 10.8054 19.1462 10.3628C19.1462 9.92024 18.7875 9.56148 18.3449 9.56148C17.9024 9.56148 17.5436 9.92024 17.5436 10.3628C17.5436 10.8054 17.9024 11.1641 18.3449 11.1641Z" fill="#4285F4"/>
<path d="M18.3449 4.54268C18.7875 4.54268 19.1462 4.18391 19.1462 3.74135C19.1462 3.2988 18.7875 2.94003 18.3449 2.94003C17.9024 2.94003 17.5436 3.2988 17.5436 3.74135C17.5436 4.18391 17.9024 4.54268 18.3449 4.54268Z" fill="#4285F4"/>
<path d="M11.9976 15.8877C11.7887 15.885 11.5892 15.8008 11.4415 15.6531C11.2938 15.5054 11.2096 15.3058 11.2068 15.0969V13.0831C11.2294 12.8877 11.3229 12.7075 11.4697 12.5767C11.6165 12.4458 11.8063 12.3735 12.0029 12.3735C12.1995 12.3735 12.3893 12.4458 12.5361 12.5767C12.6829 12.7075 12.7764 12.8877 12.7989 13.0831V15.0758C12.8003 15.1819 12.7806 15.2873 12.741 15.3857C12.7013 15.4842 12.6425 15.5737 12.568 15.6493C12.4934 15.7248 12.4046 15.7848 12.3067 15.8257C12.2088 15.8666 12.1037 15.8877 11.9976 15.8877Z" fill="#669DF6"/>
<path d="M11.9976 18.2179C12.4402 18.2179 12.7989 17.8591 12.7989 17.4165C12.7989 16.974 12.4402 16.6152 11.9976 16.6152C11.5551 16.6152 11.1963 16.974 11.1963 17.4165C11.1963 17.8591 11.5551 18.2179 11.9976 18.2179Z" fill="#669DF6"/>
<path d="M11.9976 11.5648C12.4402 11.5648 12.7989 11.206 12.7989 10.7635C12.7989 10.3209 12.4402 9.96214 11.9976 9.96214C11.5551 9.96214 11.1963 10.3209 11.1963 10.7635C11.1963 11.206 11.5551 11.5648 11.9976 11.5648Z" fill="#669DF6"/>
<path d="M11.9976 9.22408C12.4402 9.22408 12.7989 8.86531 12.7989 8.42276C12.7989 7.9802 12.4402 7.62144 11.9976 7.62144C11.5551 7.62144 11.1963 7.9802 11.1963 8.42276C11.1963 8.86531 11.5551 9.22408 11.9976 9.22408Z" fill="#669DF6"/>
<path d="M15.1607 11.1852C14.9518 11.1825 14.7523 11.0983 14.6046 10.9506C14.4569 10.8029 14.3727 10.6033 14.3699 10.3944V8.41221C14.357 8.29998 14.3679 8.18628 14.402 8.07858C14.4361 7.97087 14.4926 7.87159 14.5678 7.78726C14.643 7.70292 14.7351 7.63544 14.8382 7.58922C14.9413 7.54301 15.053 7.51913 15.166 7.51913C15.279 7.51913 15.3907 7.54301 15.4938 7.58922C15.5969 7.63544 15.689 7.70292 15.7642 7.78726C15.8394 7.87159 15.8958 7.97087 15.9299 8.07858C15.964 8.18628 15.975 8.29998 15.962 8.41221V10.3944C15.9593 10.6051 15.8736 10.8062 15.7236 10.9542C15.5737 11.1023 15.3714 11.1852 15.1607 11.1852Z" fill="#4285F4"/>
<path d="M15.1713 6.87283C15.6138 6.87283 15.9726 6.51407 15.9726 6.07151C15.9726 5.62895 15.6138 5.27019 15.1713 5.27019C14.7287 5.27019 14.3699 5.62895 14.3699 6.07151C14.3699 6.51407 14.7287 6.87283 15.1713 6.87283Z" fill="#4285F4"/>
<path d="M15.1713 15.835C15.6138 15.835 15.9726 15.4762 15.9726 15.0337C15.9726 14.5911 15.6138 14.2323 15.1713 14.2323C14.7287 14.2323 14.3699 14.5911 14.3699 15.0337C14.3699 15.4762 14.7287 15.835 15.1713 15.835Z" fill="#4285F4"/>
<path d="M15.1713 13.4943C15.6138 13.4943 15.9726 13.1355 15.9726 12.693C15.9726 12.2504 15.6138 11.8916 15.1713 11.8916C14.7287 11.8916 14.3699 12.2504 14.3699 12.693C14.3699 13.1355 14.7287 13.4943 15.1713 13.4943Z" fill="#4285F4"/>
<path d="M8.82396 15.835C9.26652 15.835 9.62528 15.4762 9.62528 15.0337C9.62528 14.5911 9.26652 14.2323 8.82396 14.2323C8.3814 14.2323 8.02264 14.5911 8.02264 15.0337C8.02264 15.4762 8.3814 15.835 8.82396 15.835Z" fill="#AECBFA"/>
<path d="M8.82396 9.22408C9.26652 9.22408 9.62528 8.86531 9.62528 8.42276C9.62528 7.9802 9.26652 7.62144 8.82396 7.62144C8.3814 7.62144 8.02264 7.9802 8.02264 8.42276C8.02264 8.86531 8.3814 9.22408 8.82396 9.22408Z" fill="#AECBFA"/>
<path d="M8.82396 6.87283C9.26652 6.87283 9.62528 6.51407 9.62528 6.07151C9.62528 5.62895 9.26652 5.27019 8.82396 5.27019C8.3814 5.27019 8.02264 5.62895 8.02264 6.07151C8.02264 6.51407 8.3814 6.87283 8.82396 6.87283Z" fill="#AECBFA"/>
<path d="M8.8345 13.4943C8.62735 13.4944 8.42818 13.4144 8.27878 13.2709C8.12938 13.1274 8.04136 12.9316 8.03318 12.7246V10.7213C8.03318 10.5116 8.1165 10.3104 8.26479 10.1621C8.41309 10.0138 8.61423 9.93051 8.82396 9.93051C9.03369 9.93051 9.23482 10.0138 9.38312 10.1621C9.53142 10.3104 9.61474 10.5116 9.61474 10.7213V12.7246C9.6093 12.9288 9.52503 13.123 9.37959 13.2665C9.23414 13.41 9.0388 13.4916 8.8345 13.4943Z" fill="#AECBFA"/>
</svg>
