<svg width="81" height="80" viewBox="0 0 81 80" fill="none" xmlns="http://www.w3.org/2000/svg">
    <path d="M54.3956 64.3361L53.259 33.001L51.2007 24.7397L64.9395 26.1942V64.099L56.547 68.9426L54.3956 64.3361Z"
          fill="#24386C"/>
    <path
        d="M64.9386 26.192L56.5461 31.039L39.2269 27.2399L18.9551 35.4937L15.5776 26.192L40.2578 11.9426L64.9386 26.192Z"
        fill="#7589BE"/>
    <path d="M15.5782 26.192L23.9708 31.039L28.8357 45.5075L45.2621 58.6506L40.2588 68.94L15.5782 54.6903V26.1916"
          fill="#B2BFE8"/>
    <path d="M45.8228 51.0479L40.2588 59.2505V68.9408L48.1539 64.3855L52.2219 58.311" fill="#24386C"/>
    <path d="M40.2622 49.5632L32.3637 35.8879L34.065 31.3554L40.5325 28.2197L48.1539 35.8881L40.2622 49.5632Z"
          fill="#7589BE"/>
    <path d="M32.3637 35.8868L40.2588 40.4421V49.5602L32.9568 49.8743L28.5399 44.2344L32.3637 35.8868Z" fill="#B2BFE8"/>
    <path d="M40.2588 40.4413L48.1539 35.8864L53.5271 44.8332L47.0248 50.2057L40.2588 49.5597V40.4413Z" fill="#24386C"/>
    <path
        d="M48.1539 64.3847L56.5464 68.9404V31.0394L40.2588 21.6371L23.9711 31.0394V49.8474L40.2588 59.2501L48.1539 54.6907V64.3847ZM48.1539 45.0004L40.2588 49.5594L32.3637 45.0004V35.886L40.2588 31.327L48.1539 35.886V45.0004Z"
        fill="#DC244C"/>
    <path d="M40.2622 59.2535V49.5617L32.4082 45.0415V54.7172L40.2622 59.2535Z" fill="url(#paint0_linear_1295_809)"/>
    <defs>
        <linearGradient id="paint0_linear_1295_809" x1="672.993" y1="682.335" x2="-109.637" y2="682.335"
                        gradientUnits="userSpaceOnUse">
            <stop stop-color="#FF3364"/>
            <stop offset="1" stop-color="#C91540" stop-opacity="0"/>
        </linearGradient>
    </defs>
</svg>
