<svg width="24" height="25" viewBox="0 0 24 25" fill="none" xmlns="http://www.w3.org/2000/svg">
<path d="M12.4271 15.522H14.8211C14.9875 15.522 15.1235 15.6596 15.1235 15.8282V17.2429C15.4118 17.314 15.6679 17.4799 15.8506 17.7141C16.0333 17.9482 16.132 18.237 16.1308 18.5339C16.1308 19.2669 15.544 19.8615 14.8211 19.8615C14.0975 19.8615 13.5106 19.2669 13.5106 18.5339C13.5106 17.9067 13.9412 17.3805 14.5188 17.2421V16.1345H12.4279V19.7589C12.4281 19.8116 12.4148 19.8634 12.3892 19.9094C12.3636 19.9554 12.3266 19.9941 12.2817 20.0217L10.1909 21.2972C10.1434 21.3262 10.0888 21.3414 10.0332 21.3411C9.97763 21.3409 9.92321 21.3251 9.87606 21.2956L6.04717 18.8969C6.00299 18.8692 5.9666 18.8307 5.94144 18.785C5.91628 18.7393 5.90318 18.6879 5.90337 18.6358V16.1337L3.99048 15.0222C3.94698 14.997 3.91034 14.9615 3.88377 14.9188C3.85721 14.8761 3.84154 14.8275 3.83813 14.7773V14.7564V10.7751C3.83813 10.6663 3.89488 10.5653 3.98737 10.5108L5.90337 9.37446V6.92136C5.90337 6.82109 5.95156 6.72781 6.03162 6.67107L6.04795 6.66019L9.87762 4.28637C9.92508 4.25682 9.97988 4.24115 10.0358 4.24115C10.0917 4.24115 10.1465 4.25682 10.194 4.28637L12.2849 5.58832C12.329 5.61605 12.3654 5.65458 12.3906 5.70028C12.4157 5.74597 12.4288 5.79732 12.4287 5.84948V9.37135H15.4259V7.8813C15.1374 7.81016 14.8812 7.6441 14.6985 7.4098C14.5158 7.1755 14.4172 6.88657 14.4185 6.58946C14.4185 5.85648 15.0053 5.26186 15.7282 5.26186C16.4519 5.26186 17.0379 5.85648 17.0379 6.58946C17.0379 7.21672 16.6081 7.74294 16.0306 7.8813V9.6776C16.0309 9.71757 16.0233 9.75722 16.0083 9.79426C15.9932 9.8313 15.971 9.86501 15.9429 9.89346C15.9149 9.92191 15.8814 9.94453 15.8446 9.96004C15.8077 9.97555 15.7682 9.98364 15.7282 9.98385H12.4287V11.3876H17.5774C17.6435 11.0986 17.8055 10.8405 18.0369 10.6552C18.2683 10.4699 18.5556 10.3683 18.8521 10.367C19.575 10.367 20.1618 10.9609 20.1618 11.6939C20.1618 12.4268 19.5758 13.0215 18.8521 13.0215C18.5555 13.0201 18.2681 12.9185 18.0367 12.733C17.8052 12.5476 17.6434 12.2893 17.5774 12.0001H12.4271V13.5057H16.277L16.9882 14.4229C17.1863 14.3071 17.4116 14.2462 17.6411 14.2465C18.3648 14.2465 18.9508 14.8403 18.9508 15.5733C18.9508 16.3063 18.3648 16.9009 17.6411 16.9009C16.9182 16.9009 16.3314 16.3063 16.3314 15.5733C16.3314 15.3043 16.4107 15.0541 16.5459 14.845L15.9832 14.1182H12.4271V15.522ZM10.0354 4.90664L8.44742 5.89068V8.19765H7.84269V6.26533L6.5081 7.09314V9.38223L8.14816 10.4393L9.83253 9.37912V7.61003H10.4373V9.55012C10.4373 9.65583 10.3828 9.75455 10.2942 9.81051L8.47307 10.9554V12.573L9.57836 13.3572L9.23169 13.8594L8.13884 13.0836L6.94959 13.8648L6.6208 13.3518L7.86834 12.5318V10.985L6.19952 9.90767L4.44286 10.9492V12.252L5.97566 11.3278L6.28502 11.854L4.44286 12.9647V14.5791L6.12645 15.557L7.89088 14.4936L8.19946 15.0199L6.5081 16.0389V18.4655L7.96628 19.3789L9.80455 18.2704L10.1139 18.7974L8.54613 19.7426L10.037 20.6761L11.8232 19.5856V15.0929L8.12484 17.3416L7.81393 16.8169L11.8232 14.3794V6.02049L10.0354 4.90664ZM14.8211 17.8204C14.7278 17.8209 14.6355 17.8398 14.5495 17.8761C14.4635 17.9123 14.3855 17.9651 14.3199 18.0315C14.2543 18.098 14.2025 18.1767 14.1674 18.2632C14.1323 18.3496 14.1146 18.4422 14.1154 18.5355C14.1154 18.9296 14.4309 19.249 14.8211 19.249C14.9143 19.2484 15.0065 19.2295 15.0924 19.1932C15.1782 19.157 15.2561 19.1042 15.3216 19.0379C15.387 18.9716 15.4388 18.893 15.4739 18.8067C15.509 18.7203 15.5267 18.6279 15.5261 18.5347C15.5268 18.4415 15.5092 18.349 15.4741 18.2626C15.4391 18.1761 15.3873 18.0975 15.3218 18.031C15.2564 17.9646 15.1784 17.9118 15.0925 17.8755C15.0066 17.8392 14.9144 17.821 14.8211 17.8204ZM17.6427 14.859C17.5493 14.8595 17.457 14.8784 17.371 14.9146C17.285 14.9508 17.207 15.0037 17.1414 15.0701C17.0759 15.1365 17.0241 15.2152 16.989 15.3017C16.9539 15.3882 16.9362 15.4807 16.9369 15.5741C16.9369 15.9689 17.2525 16.2892 17.6419 16.2892C17.7352 16.2886 17.8275 16.2697 17.9135 16.2335C17.9995 16.1973 18.0775 16.1444 18.1431 16.078C18.2087 16.0116 18.2605 15.9329 18.2956 15.8464C18.3307 15.7599 18.3484 15.6674 18.3477 15.5741C18.3484 15.4807 18.3307 15.3882 18.2956 15.3017C18.2605 15.2152 18.2087 15.1365 18.1431 15.0701C18.0775 15.0037 17.9995 14.9508 17.9135 14.9146C17.8275 14.8784 17.736 14.8595 17.6427 14.859ZM18.8513 10.9803C18.758 10.9808 18.6657 10.9997 18.5797 11.036C18.4937 11.0722 18.4157 11.125 18.3501 11.1915C18.2846 11.2579 18.2327 11.3366 18.1976 11.4231C18.1625 11.5095 18.1448 11.6021 18.1456 11.6954C18.1456 12.0895 18.4619 12.409 18.8513 12.409C18.9445 12.4084 19.0367 12.3894 19.1226 12.3532C19.2084 12.3169 19.2863 12.2641 19.3518 12.1978C19.4172 12.1315 19.469 12.0529 19.5041 11.9666C19.5392 11.8802 19.5569 11.7878 19.5563 11.6946C19.557 11.6014 19.5394 11.5089 19.5043 11.4225C19.4693 11.336 19.4175 11.2574 19.3521 11.191C19.2866 11.1246 19.2087 11.0717 19.1227 11.0354C19.0368 10.9991 18.9446 10.9802 18.8513 10.9795V10.9803ZM15.7274 5.87358C15.6342 5.87419 15.542 5.89318 15.456 5.92945C15.3701 5.96573 15.2922 6.01859 15.2267 6.085C15.1612 6.15142 15.1095 6.23008 15.0744 6.31651C15.0394 6.40293 15.0217 6.49542 15.0224 6.58868C15.0224 6.98354 15.338 7.30378 15.7274 7.30378C15.8208 7.30327 15.9131 7.28436 15.9991 7.24813C16.0851 7.21189 16.1631 7.15905 16.2287 7.09263C16.2942 7.02621 16.346 6.9475 16.3811 6.86103C16.4162 6.77455 16.4339 6.682 16.4332 6.58868C16.4339 6.49535 16.4162 6.40281 16.3811 6.31633C16.346 6.22986 16.2942 6.15115 16.2287 6.08473C16.1631 6.0183 16.0851 5.96546 15.9991 5.92923C15.9131 5.893 15.8208 5.87409 15.7274 5.87358Z" fill="url(#paint0_linear_1248_524)"/>
<defs>
<linearGradient id="paint0_linear_1248_524" x1="1309.73" y1="346.241" x2="284.84" y2="1324.61" gradientUnits="userSpaceOnUse">
<stop stop-color="#6350FB"/>
<stop offset="0.5" stop-color="#3D8FFF"/>
<stop offset="1" stop-color="#9AD8F8"/>
</linearGradient>
</defs>
</svg>
