<svg width="80" height="80" viewBox="0 0 80 80" fill="none" xmlns="http://www.w3.org/2000/svg">
    <path
        d="M49.5 58.2399C59.9934 58.2399 68.5 50.0736 68.5 40C68.5 29.9263 59.9934 21.76 49.5 21.76C39.0066 21.76 30.5001 29.9263 30.5001 40C30.5001 50.0736 39.0066 58.2399 49.5 58.2399Z"
        fill="#FFDE2D"/>
    <path
        d="M30.5 58.2399C40.9934 58.2399 49.4999 50.0736 49.4999 40C49.4999 29.9263 40.9934 21.76 30.5 21.76C20.0066 21.76 11.5 29.9263 11.5 40C11.5 50.0736 20.0066 58.2399 30.5 58.2399Z"
        fill="#327EFF"/>
    <path
        d="M49.4999 40C49.4999 50.0736 40.9934 58.2399 30.5 58.2399L30.5001 40H49.4999ZM30.5001 40C30.5001 29.9263 39.0066 21.76 49.5 21.76L49.4999 40H30.5001Z"
        fill="#FF6446"/>
</svg>
