<svg width="81" height="80" viewBox="0 0 81 80" fill="none" xmlns="http://www.w3.org/2000/svg">
    <rect x="12.4336" y="11.5" width="57" height="57" fill="black"/>
    <path fill-rule="evenodd" clip-rule="evenodd"
          d="M45.7996 20.1995C45.3942 19.7168 44.7184 19.601 44.1778 19.9099L43.6758 20.1802L38.212 23.2886L39.4862 25.5282L43.0387 23.501L42.1699 28.2505L44.6991 28.7139L45.5872 23.9451L48.213 27.0728L50.1823 25.4124L46.205 20.6629H46.1857L45.7996 20.1995ZM38.1348 60.2614C39.4476 60.2614 40.5095 59.2188 40.5095 57.9445C40.5095 56.6703 39.4476 55.6277 38.1348 55.6277C36.8219 55.6277 35.76 56.6703 35.76 57.9445C35.7407 59.2188 36.8219 60.2614 38.1348 60.2614ZM41.3204 47.5381L40.4709 52.3069L37.9224 51.8436L38.7719 47.094L35.2194 49.1406L33.9259 46.901L39.3511 43.7926L39.8531 43.503C40.3937 43.1941 41.0694 43.3099 41.4749 43.7926L41.861 44.2559L45.8961 48.9861L43.9268 50.6658L41.3204 47.5381ZM43.3862 36.147L42.5367 40.9158L39.9882 40.4525L40.8377 35.7223L37.3046 37.7495L36.0303 35.5099L41.4362 32.4208V32.3822H41.4749L41.9768 32.0926C42.5174 31.7837 43.1932 31.8995 43.5986 32.3822L43.9848 32.8262L48.0006 37.5757L46.0313 39.2554L43.3862 36.147ZM26.7244 54.9906H26.7051L26.1838 54.8361C25.6239 54.6817 25.257 54.1411 25.2957 53.5619L25.759 47.1134L28.211 47.2871L27.9214 51.2064L31.7249 48.6193L33.0957 50.6465L29.3694 53.1757L33.1729 54.2762L32.4971 56.6317L26.7244 54.9906ZM51.9585 57.6549L51.7847 58.2148C51.611 58.7554 51.109 59.1223 50.5298 59.0836L49.9892 59.045L49.9506 59.0643L49.9313 59.045L43.9461 58.6396L44.1006 56.1876L48.0778 56.4579L45.4714 52.8089L47.46 51.3802L50.1243 55.1257L51.2828 51.3416L53.6189 52.0559L51.9585 57.6549ZM58.9862 44.3718L59.2758 44.8931C59.5654 45.4143 59.4496 46.0708 58.9862 46.4569L58.5615 46.8238V46.8431H58.5422L53.8892 50.7817L52.2674 48.8703L55.3179 46.2832L50.7422 45.4723L51.1862 43.001L55.8006 43.8119L53.8699 40.3366L56.0516 39.1203L58.9862 44.3718ZM54.256 33.5985L50.1243 35.8188L48.9273 33.6178L53.0011 31.4361L49.2748 29.9109L50.2209 27.5941L55.8971 29.8916L55.9164 29.8723L55.9357 29.9109L56.457 30.1233C57.0169 30.355 57.3258 30.9342 57.2293 31.5134L57.1328 32.0926L56.0709 37.9812L53.5996 37.5371L54.256 33.5985ZM26.5313 38.7728L31.1263 39.545L30.7016 42.0163L26.0679 41.2247L28.0372 44.7L25.8556 45.9356L22.8823 40.7035L22.5927 40.2015C22.3031 39.6802 22.4189 39.0238 22.863 38.6376L23.2877 38.2708V38.2515H23.307L27.9021 34.2936L29.5432 36.205L26.5313 38.7728ZM33.4625 28.0767L36.513 31.4748L34.6402 33.1545L31.5125 29.6792L30.7981 33.6371L28.3268 33.1931L29.408 27.3238L29.5239 26.7253C29.6204 26.146 30.1224 25.7213 30.7016 25.702L31.2422 25.6827L31.2615 25.6634L31.2808 25.6827L37.4204 25.4317L37.5169 27.9416L33.4625 28.0767Z"
          fill="white"/>
</svg>
