<svg width="24" height="25" viewBox="0 0 24 25" fill="none" xmlns="http://www.w3.org/2000/svg">
<path d="M3.45001 6.80615V18.7761C3.45001 20.1926 4.59856 21.3411 6.01501 21.3411H17.985C19.4015 21.3411 20.55 20.1926 20.55 18.7761V6.80615C20.55 5.3897 19.4015 4.24115 17.985 4.24115H6.01501C4.59856 4.24115 3.45001 5.3897 3.45001 6.80615ZM13.71 4.24115V7.66115C13.71 11.4383 16.7728 14.5011 20.55 14.5011H17.13C13.3528 14.5011 10.291 17.562 10.29 21.3392V17.9211C10.29 14.1439 7.22721 11.0811 3.45001 11.0811H6.87001C10.6472 11.0811 13.71 8.01835 13.71 4.24115Z" fill="url(#paint0_radial_1248_518)"/>
<defs>
<radialGradient id="paint0_radial_1248_518" cx="0" cy="0" r="1" gradientUnits="userSpaceOnUse" gradientTransform="translate(11.257 12.3552) rotate(45) scale(10.7264 14.5987)">
<stop stop-color="#83B9F9"/>
<stop offset="1" stop-color="#0078D4"/>
</radialGradient>
</defs>
</svg>
