<svg width="24" height="25" viewBox="0 0 24 25" fill="none" xmlns="http://www.w3.org/2000/svg">
<path d="M9.76499 14.3685H6.60907L6.61054 11.2142H9.76659L9.76499 14.3685Z" fill="#1C1C1B"/>
<path d="M12.9194 17.5229H9.76349L9.76499 14.3685H12.921L12.9194 17.5229Z" fill="#1C1C1B"/>
<path d="M12.921 14.3685H9.76499L9.76659 11.2142H12.9225L12.921 14.3685Z" fill="#1C1C1B"/>
<path d="M16.077 14.3685L12.921 14.3685L12.9225 11.2142H16.0785L16.077 14.3685ZM9.76659 11.2142H6.61054L6.61208 8.05965H9.76816L9.76659 11.2142ZM16.0785 11.2142H12.9225L12.924 8.05965H16.08L16.0785 11.2142ZM6.60907 14.3685L3.45312 14.3685L3.45459 11.1617H6.61061L6.60907 14.3685Z" fill="#1C1C1B"/>
<path d="M6.61054 11.2142L3.45462 11.2141L3.45616 8.05965H6.61208L6.61054 11.2142Z" fill="#1C1C1B"/>
<path d="M6.61218 8.11211H3.45619L3.45769 4.9053H6.61378L6.61218 8.11211ZM19.236 8.05965L16.08 8.05965L16.0815 4.9053H19.2376L19.236 8.05965ZM6.6075 17.5753H3.45155L3.45302 14.316H6.60907L6.6075 17.5753Z" fill="#1C1C1B"/>
<path d="M6.606 20.6773H3.45001L3.45148 17.523H6.6075L6.606 20.6773ZM19.2329 14.3685H16.077L16.0785 11.2142H19.2344L19.2329 14.3685ZM19.2344 11.2142H16.0785L16.08 8.05965L19.236 8.05965L19.2344 11.2142Z" fill="#1C1C1B"/>
<path d="M19.2313 17.5229H16.0754L16.077 14.3685H19.2329L19.2313 17.5229Z" fill="#1C1C1B"/>
<path d="M19.2298 20.6772H16.0739L16.0753 17.4704H19.2313L19.2298 20.6772Z" fill="#1C1C1B"/>
<path d="M11.0774 14.3682H7.86909L7.87063 11.2139H11.0791L11.0774 14.3682Z" fill="#FF7000"/>
<path d="M14.2319 17.5226H11.0759L11.0774 14.3157H14.2335L14.2319 17.5226Z" fill="#FF4900"/>
<path d="M14.2859 14.3682H11.025L11.0266 11.2139H14.2875L14.2859 14.3682Z" fill="#FF7000"/>
<path d="M17.4419 14.3682H14.2335L14.235 11.2139H17.4435L17.4419 14.3682Z" fill="#FF7000"/>
<path d="M11.0791 11.2139H7.87063L7.87213 8.05945H11.0806L11.0791 11.2139ZM17.4435 11.2139H14.235L14.2365 8.05945H17.4451L17.4435 11.2139Z" fill="#FFA300"/>
<path d="M7.92149 14.4207H4.76564L4.76711 11.2139H7.92313L7.92149 14.4207Z" fill="#FF7000"/>
<path d="M7.92313 11.2139H4.76711L4.76862 8.02605H7.92463L7.92313 11.2139Z" fill="#FFA300"/>
<path d="M7.9246 8.05945H4.76872L4.77019 4.90503H7.92624L7.9246 8.05945ZM20.5485 8.09284H17.3926L17.394 4.90503H20.5501L20.5485 8.09284Z" fill="#FFCE00"/>
<path d="M7.91993 17.5894H4.76407L4.76554 14.3682H7.92156L7.91993 17.5894Z" fill="#FF4900"/>
<path d="M7.91839 20.6771H4.76257L4.76404 17.5227H7.92006L7.91839 20.6771Z" fill="#FF0107"/>
<path d="M20.5454 14.3682H17.3894L17.391 11.2139H20.547L20.5454 14.3682Z" fill="#FF7000"/>
<path d="M20.547 11.2139H17.391L17.3925 8.05945H20.5485L20.547 11.2139Z" fill="#FFA300"/>
<path d="M20.5438 17.556H17.3879L17.3894 14.3682H20.5454L20.5438 17.556Z" fill="#FF4900"/>
<path d="M20.5423 20.6771H17.3863L17.3878 17.5227H20.5439L20.5423 20.6771Z" fill="#FF0107"/>
</svg>
