<svg width="81" height="80" viewBox="0 0 81 80" fill="none" xmlns="http://www.w3.org/2000/svg">
    <path
        d="M45.606 17.8541C43.2063 15.0219 41.1415 12.1277 40.7202 11.54C40.7113 11.5276 40.6997 11.5175 40.6862 11.5106C40.6727 11.5036 40.6577 11.5 40.6425 11.5C40.6273 11.5 40.6124 11.5036 40.5989 11.5106C40.5854 11.5175 40.5737 11.5276 40.5649 11.54C40.1457 12.1343 38.081 15.0286 35.6857 17.8607C15.1244 44.042 38.9259 61.7113 38.9259 61.7113L39.1189 61.8466C39.3008 64.5789 39.7488 68.5 39.7488 68.5H41.5385C41.5385 68.5 41.9821 64.5878 42.1662 61.8466L42.3613 61.6935C42.3613 61.6935 66.1629 44.042 45.606 17.8541ZM40.6447 61.3232C40.6447 61.3232 39.578 60.4139 39.2897 59.957V59.9082L40.5804 31.396C40.5833 31.3802 40.5917 31.3659 40.604 31.3555C40.6164 31.3452 40.632 31.3396 40.6481 31.3396C40.6642 31.3396 40.6798 31.3452 40.6921 31.3555C40.7045 31.3659 40.7128 31.3802 40.7157 31.396L42.0109 59.9126V59.9614C41.7226 60.405 40.6558 61.3276 40.6558 61.3276"
        fill="#00684A"/>
</svg>
