<svg width="24" height="25" viewBox="0 0 24 25" fill="none" xmlns="http://www.w3.org/2000/svg">
<path fill-rule="evenodd" clip-rule="evenodd" d="M14.7631 4.38718C15.8297 4.15575 16.9733 4.18561 18.0011 4.57629C18.7171 4.85507 19.3453 5.32083 19.8201 5.92502C20.046 6.21218 20.0749 6.59689 20.0898 6.95025C20.0998 7.78984 19.9326 8.62048 19.7186 9.42872C19.3105 10.9248 18.6903 12.3581 17.911 13.6929C17.8344 13.8244 17.7498 13.9511 17.6577 14.0721L17.6288 13.9238C17.7258 13.6665 17.8677 13.4241 17.9224 13.1514C18.1175 12.3815 17.9523 11.5887 17.8821 10.8138C17.8085 10.0822 18.0553 9.37049 18.0493 8.64088C18.0777 8.28354 17.9378 7.94562 17.8015 7.62461C17.3103 6.51378 16.5279 5.52488 15.5251 4.84604C15.2807 4.67633 15.007 4.55738 14.7631 4.38718Z" fill="#326690"/>
<path fill-rule="evenodd" clip-rule="evenodd" d="M11.7994 4.4887C13.1118 4.31999 14.4904 4.68529 15.533 5.51493C16.395 6.20322 17.0759 7.13588 17.4426 8.1845C16.833 8.1631 16.1412 8.13772 15.648 8.56623C15.2011 8.94745 15.1433 9.59793 15.2439 10.1449C15.4778 11.4443 16.2353 12.5487 16.7952 13.7173C16.944 13.9915 17.144 14.2304 17.3337 14.4762C17.1072 14.5922 16.8549 14.7022 16.7265 14.9381C16.5015 15.3049 16.5802 15.7523 16.5249 16.1599C16.3955 17.3016 16.2681 18.4448 16.084 19.579C15.9969 20.1229 15.7689 20.7008 15.2603 20.9715C14.7402 21.2393 14.1355 21.407 13.5503 21.3164C12.9943 21.2174 12.6445 20.6943 12.4872 20.1837C12.3717 19.7557 12.3598 19.3092 12.327 18.8693C12.2755 17.8062 12.2655 16.7415 12.2971 15.6776C12.3205 15.2621 12.1095 14.8296 11.7432 14.6275C11.5655 14.527 11.358 14.5131 11.1594 14.4971C11.3152 13.7158 11.786 13.0404 11.9472 12.26C12.1567 11.2945 12.0413 10.2892 11.8268 9.33515C11.7223 8.85936 11.3639 8.43832 10.8872 8.32286C10.1536 8.13573 9.41351 8.42638 8.75707 8.73594C8.83968 7.65795 9.12535 6.55459 9.77831 5.67916C10.019 5.35626 10.3216 5.08464 10.6686 4.88022C11.0156 4.6758 11.4003 4.54269 11.7994 4.4887Z" fill="#326690"/>
<path fill-rule="evenodd" clip-rule="evenodd" d="M6.20595 4.57828C7.37451 4.35084 8.57293 4.59172 9.69471 4.93761C9.19516 5.48687 8.81849 6.13636 8.58985 6.84274C8.28378 7.78934 8.14393 8.79665 8.21659 9.79102C8.26191 10.4916 8.23774 11.1949 8.14442 11.8908C8.02349 12.798 8.38331 13.7317 9.05021 14.3443C8.59632 14.8808 8.11506 15.393 7.67511 15.9419C7.48101 16.1733 7.21873 16.4485 6.88777 16.3799C6.50057 16.2664 6.25422 15.9091 6.03872 15.5885C5.45643 14.6459 5.10457 13.5819 4.78307 12.5253C4.42274 11.2751 4.11866 10.0045 3.94397 8.71304C3.85688 7.73061 3.91112 6.67652 4.40881 5.80159C4.78108 5.13867 5.47634 4.71664 6.20595 4.57828ZM16.1845 9.11119C16.0412 9.23063 16.196 9.40781 16.3189 9.46404C16.6175 9.64122 17.0256 9.39337 17.0356 9.04898C16.7668 8.92256 16.4284 8.93501 16.1845 9.11119ZM16.0257 8.94894C16.4557 8.64038 17.0181 8.70906 17.5153 8.73991C17.4939 9.43468 17.2819 10.1155 17.3511 10.8153C17.4133 11.6802 17.6616 12.6099 17.258 13.4306C16.717 12.3422 16.0173 11.303 15.7734 10.0911C15.7042 9.70492 15.6868 9.21669 16.0257 8.94894Z" fill="#326690"/>
<path fill-rule="evenodd" clip-rule="evenodd" d="M10.2526 9.1311C10.17 9.16096 10.0834 9.2177 10.1003 9.31923C10.1596 9.66512 10.6179 9.87564 10.9066 9.66014C11.034 9.58798 11.1679 9.38791 11.021 9.26747C10.812 9.09577 10.5069 9.06192 10.2526 9.1311ZM8.73767 9.39637C9.27666 9.04401 9.90722 8.76829 10.5597 8.80611C10.8981 8.82104 11.2102 9.06242 11.2913 9.39886C11.5879 10.5933 11.6795 11.9211 11.1116 13.0519C10.9161 13.4889 10.7498 13.9385 10.6139 14.3976C9.66933 14.4075 8.86557 13.6003 8.69835 12.6915C8.58388 12.1774 8.73319 11.6603 8.75061 11.1452C8.79042 10.5629 8.74911 9.97916 8.73767 9.39637ZM17.252 15.1332C17.3919 15.0292 17.5905 14.9331 17.7527 15.0471C18.4405 15.4129 19.2398 15.2342 19.9714 15.1451C19.5245 15.5841 18.9054 15.7901 18.2967 15.8568C17.8936 15.9051 17.475 15.9195 17.0858 15.7846C17.0878 15.5622 17.0759 15.2984 17.252 15.1332ZM10.3263 15.9852C10.7214 15.7707 10.8777 15.2974 11.247 15.0545C11.6486 14.9968 11.9428 15.6005 11.6387 15.8862C11.0454 16.6984 9.85795 16.8537 9.00044 16.4117C9.42348 16.2131 9.91817 16.2286 10.3263 15.9852Z" fill="#326690"/>
</svg>
