<svg width="24" height="25" viewBox="0 0 24 25" fill="none" xmlns="http://www.w3.org/2000/svg">
<path d="M10.0518 4.59927L12.0639 7.78443C12.3869 8.29635 12.0197 8.96323 11.4146 8.96323H10.5915V13.732H9.4017V4.24109C9.65111 4.24109 9.90053 4.36048 10.0518 4.59927Z" fill="#8FBCFA"/>
<path d="M6.74069 7.78485L8.75278 4.59928C8.82164 4.48912 8.91751 4.39838 9.03129 4.3357C9.14507 4.27301 9.27299 4.24045 9.4029 4.2411V13.732C9.36858 13.7303 9.33422 13.7295 9.29986 13.7295C8.89507 13.7295 8.52013 13.8567 8.21306 14.0738V8.96324H7.38999C6.78485 8.96324 6.41686 8.29635 6.74028 7.78485H6.74069Z" fill="#468BFF"/>
<path d="M15.7098 16.8804H10.7023C11.0036 16.555 11.1802 16.1336 11.2007 15.6906H20.432C20.432 15.94 20.3126 16.1894 20.0742 16.3407L16.8882 18.3524C16.3767 18.6758 15.7094 18.3082 15.7094 17.7031L15.7098 16.8804Z" fill="#FDBB11"/>
<path d="M16.8883 13.0292L20.0734 15.0413C20.3126 15.1921 20.4316 15.4415 20.4316 15.691L11.2007 15.6906C11.2211 15.2658 11.0975 14.8469 10.8499 14.5011H15.7103V13.6789C15.7103 13.0737 16.3768 12.7057 16.8883 13.0292Z" fill="#F6D785"/>
<path d="M3.7931 21.1156C3.88446 21.2077 3.99783 21.275 4.12248 21.3111C4.24713 21.3471 4.37891 21.3508 4.50536 21.3216L8.18077 20.4916C8.77078 20.3587 8.98258 19.6272 8.55489 19.1996L7.97306 18.6177L10.163 16.4278C10.378 16.2127 10.4988 15.9211 10.4988 15.617C10.4988 15.3129 10.378 15.0212 10.163 14.8062L10.1328 14.7755L3.7931 21.1156Z" fill="#FF9A9D"/>
<path d="M6.29135 16.9355L8.4809 14.7456C8.5874 14.6391 8.71383 14.5546 8.85299 14.497C8.99214 14.4393 9.14129 14.4096 9.29191 14.4096C9.44253 14.4096 9.59167 14.4393 9.73083 14.497C9.86998 14.5546 9.99642 14.6391 10.1029 14.7456L10.1332 14.7758L3.79351 21.1155C3.70137 21.0241 3.63408 20.9108 3.59802 20.7861C3.56196 20.6615 3.55831 20.5297 3.58744 20.4032L4.41705 16.7278C4.54994 16.1374 5.28183 15.926 5.70952 16.3537L6.29135 16.9355Z" fill="#FE363B"/>
</svg>
