<svg width="24" height="25" viewBox="0 0 24 25" fill="none" xmlns="http://www.w3.org/2000/svg">
<g clip-path="url(#clip0_1264_1081)">
<mask id="mask0_1264_1081" style="mask-type:luminance" maskUnits="userSpaceOnUse" x="5" y="5" width="14" height="15">
<path d="M12 19.6312C15.7777 19.6312 18.84 16.5688 18.84 12.7912C18.84 9.01354 15.7777 5.95117 12 5.95117C8.22241 5.95117 5.16003 9.01354 5.16003 12.7912C5.16003 16.5688 8.22241 19.6312 12 19.6312Z" fill="white"/>
</mask>
<g mask="url(#mask0_1264_1081)">
<path d="M14.9282 9.79867H5.58753C5.35224 9.79867 5.16003 9.60647 5.16003 9.37117V6.37867C5.16003 6.14338 5.35224 5.95117 5.58753 5.95117H17.7716C18.0069 5.95117 18.1991 6.14338 18.1991 6.37867V6.52847C18.1772 8.32397 16.7237 9.79867 14.9282 9.79867Z" fill="#F0BF1A"/>
</g>
<mask id="mask1_1264_1081" style="mask-type:luminance" maskUnits="userSpaceOnUse" x="5" y="5" width="14" height="15">
<path d="M12 19.6312C15.7777 19.6312 18.84 16.5688 18.84 12.7912C18.84 9.01354 15.7777 5.95117 12 5.95117C8.22241 5.95117 5.16003 9.01354 5.16003 12.7912C5.16003 16.5688 8.22241 19.6312 12 19.6312Z" fill="white"/>
</mask>
<g mask="url(#mask1_1264_1081)">
<path d="M18.2203 19.6312H5.20312V15.7837H14.9713C16.7668 15.7837 18.2203 17.2372 18.2203 19.0327V19.6312Z" fill="#3EBEB0"/>
</g>
<mask id="mask2_1264_1081" style="mask-type:luminance" maskUnits="userSpaceOnUse" x="5" y="5" width="14" height="15">
<path d="M12 19.6312C15.7777 19.6312 18.84 16.5688 18.84 12.7912C18.84 9.01354 15.7777 5.95117 12 5.95117C8.22241 5.95117 5.16003 9.01354 5.16003 12.7912C5.16003 16.5688 8.22241 19.6312 12 19.6312Z" fill="white"/>
</mask>
<g mask="url(#mask2_1264_1081)">
<path d="M14.1587 14.7152H4.47601V10.8677H14.1587C15.2278 10.8677 16.0828 11.7227 16.0828 12.7918C16.0828 13.8609 15.2066 14.7152 14.1587 14.7152Z" fill="#07A5DE"/>
</g>
<mask id="mask3_1264_1081" style="mask-type:luminance" maskUnits="userSpaceOnUse" x="5" y="5" width="14" height="15">
<path d="M12 19.6312C15.7777 19.6312 18.84 16.5688 18.84 12.7912C18.84 9.01354 15.7777 5.95117 12 5.95117C8.22241 5.95117 5.16003 9.01354 5.16003 12.7912C5.16003 16.5688 8.22241 19.6312 12 19.6312Z" fill="white"/>
</mask>
<g mask="url(#mask3_1264_1081)">
<path d="M11.1451 10.8677H4.81805V14.7152H11.1451C11.2948 14.1379 11.3803 13.497 11.3803 12.7911C11.3803 12.0853 11.2948 11.4443 11.1451 10.8677Z" fill="#231F20"/>
</g>
<path d="M8.55879 6.87042C7.4042 7.55442 6.44249 8.58042 5.84399 9.79863H10.8885C10.3755 8.62283 9.5629 7.63992 8.55879 6.87042Z" fill="#D7A229"/>
<path d="M8.7722 18.8192C9.75579 18.0285 10.5465 16.9806 11.0383 15.7836H5.84399C6.48559 17.0661 7.51159 18.1352 8.7722 18.8192Z" fill="#019B8F"/>
</g>
<defs>
<clipPath id="clip0_1264_1081">
<rect width="17.1" height="17.1" fill="white" transform="translate(3.45001 4.24115)"/>
</clipPath>
</defs>
</svg>
